<?xml version="1.0" encoding="utf-8"?>
<!-- Generator: Adobe Illustrator 16.2.1, SVG Export Plug-In . SVG Version: 6.00 Build 0)  -->
<!DOCTYPE svg PUBLIC "-//W3C//DTD SVG 1.1//EN" "http://www.w3.org/Graphics/SVG/1.1/DTD/svg11.dtd">
<svg version="1.1" id="Layer_1" xmlns="http://www.w3.org/2000/svg" xmlns:xlink="http://www.w3.org/1999/xlink" x="0px" y="0px"
	 width="64px" height="64px" viewBox="0 0 64 64" enable-background="new 0 0 64 64" xml:space="preserve">
<g>
	<path fill="#C0C0C0" d="M32,0C14.355,0,0,14.355,0,32s14.355,32,32,32c17.645,0,32-14.355,32-32S49.645,0,32,0z M21.232,23.45
		c0-5.938,4.83-10.769,10.768-10.769c5.938,0,10.768,4.831,10.768,10.769v1.966h-3.383V23.45c0-4.072-3.312-7.385-7.385-7.385
		s-7.385,3.312-7.385,7.385v1.966h-3.383V23.45z M46.999,45.66c0,1.059-0.857,1.918-1.918,1.918H18.919
		c-1.059,0-1.918-0.859-1.918-1.918v-2.254c0-1.06,0.859-1.919,1.918-1.919h26.162c1.061,0,1.918,0.859,1.918,1.919V45.66z
		 M46.999,38.217c0,1.059-0.857,1.918-1.918,1.918H18.919c-1.059,0-1.918-0.859-1.918-1.918v-2.254c0-1.06,0.859-1.918,1.918-1.918
		h26.162c1.061,0,1.918,0.858,1.918,1.918V38.217z M46.999,30.773c0,1.06-0.857,1.918-1.918,1.918H18.919
		c-1.059,0-1.918-0.858-1.918-1.918v-2.253c0-1.061,0.859-1.919,1.918-1.919h26.162c1.061,0,1.918,0.858,1.918,1.919V30.773z"/>
</g>
</svg>
