<?xml version="1.0" encoding="utf-8"?>
<!-- Generator: Adobe Illustrator 16.2.1, SVG Export Plug-In . SVG Version: 6.00 Build 0)  -->
<!DOCTYPE svg PUBLIC "-//W3C//DTD SVG 1.1//EN" "http://www.w3.org/Graphics/SVG/1.1/DTD/svg11.dtd">
<svg version="1.1" id="Layer_1" xmlns="http://www.w3.org/2000/svg" xmlns:xlink="http://www.w3.org/1999/xlink" x="0px" y="0px"
	 width="64px" height="64px" viewBox="0 0 64 64" enable-background="new 0 0 64 64" xml:space="preserve">
<g>
	<circle fill="#C0C0C0" cx="31.999" cy="49.027" r="2.05"/>
	<path fill="#C0C0C0" d="M31.999,0C14.354,0,0,14.355,0,32s14.354,32,31.999,32C49.645,64,64,49.645,64,32S49.645,0,31.999,0z
		 M43.854,48.389c0,2.17-1.766,3.936-3.936,3.936H24.081c-2.17,0-3.936-1.766-3.936-3.936V15.611c0-2.17,1.766-3.936,3.936-3.936
		h15.838c2.17,0,3.936,1.766,3.936,3.936V48.389z"/>
	<path fill="#C0C0C0" d="M39.918,14.5H24.081c-0.614,0-1.112,0.497-1.112,1.111v28.841c0,0.614,0.498,1.112,1.112,1.112h15.838
		c0.613,0,1.111-0.498,1.111-1.112V15.611C41.03,14.997,40.532,14.5,39.918,14.5z"/>
</g>
</svg>
