<?xml version="1.0" encoding="utf-8"?>
<!-- Generator: Adobe Illustrator 16.2.1, SVG Export Plug-In . SVG Version: 6.00 Build 0)  -->
<!DOCTYPE svg PUBLIC "-//W3C//DTD SVG 1.1//EN" "http://www.w3.org/Graphics/SVG/1.1/DTD/svg11.dtd">
<svg version="1.1" id="Layer_1" xmlns="http://www.w3.org/2000/svg" xmlns:xlink="http://www.w3.org/1999/xlink" x="0px" y="0px"
	 width="64px" height="64px" viewBox="0 0 64 64" enable-background="new 0 0 64 64" xml:space="preserve">
<g>
	<path fill="#C0C0C0" d="M32,0C14.355,0,0,14.355,0,32s14.354,32,32,32c17.644,0,32-14.355,32-32S49.644,0,32,0z M46.613,38.256
		c-2.326,2.324-3,0.266-3,0.266c-0.188-0.53-0.494-1.029-0.918-1.451c-1.52-1.521-3.98-1.521-5.5,0l-0.002,0.001
		c-1.52,1.518-1.52,3.981,0.002,5.501c0.42,0.425,0.92,0.729,1.451,0.918c0,0,2.055,0.677-0.27,3.002L33.07,51.8l-6.288-6.288
		c-2.325-2.325-3.001-0.269-3.001-0.269c-0.188,0.531-0.494,1.028-0.919,1.452c-1.518,1.521-3.982,1.52-5.501,0H17.36
		c-1.519-1.52-1.519-3.982,0-5.501c0.425-0.427,0.924-0.73,1.453-0.919c0,0,2.059-0.677-0.267-3.001L12.2,30.93l5.309-5.309
		c2.324-2.325,3.001-0.268,3.001-0.268c0.188,0.531,0.494,1.029,0.918,1.453c1.521,1.52,3.982,1.52,5.502,0l0.001-0.001
		c1.519-1.519,1.519-3.982,0-5.501c-0.424-0.425-0.922-0.73-1.453-0.918c0,0-2.058-0.676,0.268-3.001L30.93,12.2l6.355,6.354
		c2.316,2.31,2.99,0.258,2.99,0.258c0.189-0.529,0.494-1.028,0.918-1.452c1.521-1.521,3.984-1.521,5.502,0.001h0.002
		c1.521,1.52,1.521,3.982,0,5.502c-0.422,0.425-0.92,0.73-1.451,0.917c0,0-2.051,0.675,0.258,2.992l6.297,6.297L46.613,38.256z"/>
</g>
</svg>
