<?xml version="1.0" encoding="utf-8"?>
<!-- Generator: Adobe Illustrator 16.2.1, SVG Export Plug-In . SVG Version: 6.00 Build 0)  -->
<!DOCTYPE svg PUBLIC "-//W3C//DTD SVG 1.1//EN" "http://www.w3.org/Graphics/SVG/1.1/DTD/svg11.dtd">
<svg version="1.1" id="Layer_1" xmlns="http://www.w3.org/2000/svg" xmlns:xlink="http://www.w3.org/1999/xlink" x="0px" y="0px"
	 width="64px" height="64px" viewBox="0 0 64 64" enable-background="new 0 0 64 64" xml:space="preserve">
<path fill="#C0C0C0" d="M32,0C14.355,0,0,14.355,0,32S14.355,64,32,64c17.645,0,32-14.355,32-32S49.645,0,32,0z M20.798,36.587
	v4.352L6.51,34.206v-4.028l14.288-6.731v4.321l-9.438,4.352L20.798,36.587z M43.202,27.768v-4.321l14.287,6.731v4.028l-14.287,6.732
	v-4.352l9.438-4.468L43.202,27.768z M40.26,20.123l-12.348,26.96h-4.146l12.319-26.96H40.26z"/>
</svg>
