<?xml version="1.0" encoding="utf-8"?>
<!-- Generator: Adobe Illustrator 16.2.1, SVG Export Plug-In . SVG Version: 6.00 Build 0)  -->
<!DOCTYPE svg PUBLIC "-//W3C//DTD SVG 1.1//EN" "http://www.w3.org/Graphics/SVG/1.1/DTD/svg11.dtd">
<svg version="1.1" id="Layer_1" xmlns="http://www.w3.org/2000/svg" xmlns:xlink="http://www.w3.org/1999/xlink" x="0px" y="0px"
	 width="64px" height="64px" viewBox="0 0 64 64" enable-background="new 0 0 64 64" xml:space="preserve">
<g>
	<rect x="33.57" y="27.497" fill="#C0C0C0" width="7.32" height="7.318"/>
	<rect x="23.108" y="17.499" fill="#C0C0C0" width="7.317" height="7.317"/>
	<rect x="33.57" y="17.499" fill="#C0C0C0" width="7.32" height="7.317"/>
	<path fill="#C0C0C0" d="M31.999,0C14.354,0,0,14.355,0,32c0,17.645,14.354,32,31.999,32C49.645,64,64,49.645,64,32
		C64,14.355,49.645,0,31.999,0z M43.914,49.752h-3.023V37.418h-7.32v12.334H20.086V14.247h23.828V49.752z"/>
	<rect x="23.108" y="27.497" fill="#C0C0C0" width="7.317" height="7.318"/>
	<rect x="23.108" y="37.418" fill="#C0C0C0" width="7.317" height="7.318"/>
</g>
</svg>
