<?xml version="1.0" encoding="utf-8"?>
<!-- Generator: Adobe Illustrator 16.2.1, SVG Export Plug-In . SVG Version: 6.00 Build 0)  -->
<!DOCTYPE svg PUBLIC "-//W3C//DTD SVG 1.1//EN" "http://www.w3.org/Graphics/SVG/1.1/DTD/svg11.dtd">
<svg version="1.1" id="Layer_1" xmlns="http://www.w3.org/2000/svg" xmlns:xlink="http://www.w3.org/1999/xlink" x="0px" y="0px"
	 width="242.001px" height="50.106px" viewBox="0 0 242.001 50.106" enable-background="new 0 0 242.001 50.106"
	 xml:space="preserve">
<path fill="#FFFFFF" d="M131.081,8.609c2.756,0,5.112,0.953,7.071,2.859c1.957,1.907,2.937,4.444,2.937,7.612
	s-0.973,5.745-2.918,7.728c-1.944,1.984-4.211,2.975-6.8,2.975s-4.914-1.133-6.975-3.4v9.327h-4.328V8.918h4.328v3.594
	C126.096,9.91,128.324,8.609,131.081,8.609z M124.319,19.235c0,1.958,0.592,3.561,1.777,4.811c1.185,1.25,2.627,1.874,4.327,1.874
	s3.182-0.618,4.444-1.855c1.262-1.236,1.893-2.84,1.893-4.811s-0.618-3.606-1.854-4.907c-1.236-1.3-2.718-1.951-4.443-1.951
	c-1.727,0-3.182,0.651-4.366,1.951C124.911,15.648,124.319,17.278,124.319,19.235z"/>
<path fill="#FFFFFF" d="M154.042,12.975c-2.139,0-3.748,0.696-4.83,2.087s-1.623,3.259-1.623,5.603v8.81h-4.327V8.918h4.327v4.135
	c0.696-1.288,1.643-2.344,2.84-3.168c1.198-0.824,2.467-1.249,3.807-1.275l0.038,4.366C154.197,12.975,154.12,12.975,154.042,12.975
	z"/>
<path fill="#FFFFFF" d="M174.957,21.09h-16.113c0.103,1.494,0.785,2.699,2.048,3.613c1.263,0.915,2.705,1.372,4.328,1.372
	c2.575,0,4.533-0.812,5.873-2.435l2.473,2.705c-2.216,2.293-5.1,3.439-8.655,3.439c-2.885,0-5.339-0.959-7.36-2.878
	c-2.022-1.919-3.033-4.495-3.033-7.728s1.029-5.802,3.091-7.709c2.061-1.906,4.488-2.859,7.284-2.859
	c2.795,0,5.171,0.844,7.129,2.531c1.957,1.688,2.937,4.012,2.937,6.975V21.09z M158.843,17.69h11.785
	c0-1.726-0.541-3.053-1.623-3.98c-1.081-0.927-2.414-1.391-3.999-1.391c-1.584,0-3.008,0.482-4.27,1.449
	C159.474,14.734,158.843,16.042,158.843,17.69z"/>
<path fill="#FFFFFF" d="M192.841,23.331c0,1.958-0.708,3.523-2.125,4.695c-1.417,1.173-3.232,1.758-5.448,1.758
	c-1.494,0-3.047-0.271-4.656-0.812c-1.61-0.541-3.033-1.3-4.27-2.279l2.087-3.362c2.396,1.803,4.714,2.705,6.955,2.705
	c0.979,0,1.751-0.225,2.318-0.676c0.566-0.451,0.85-1.024,0.85-1.72c0-1.03-1.365-1.958-4.096-2.782
	c-0.206-0.077-0.361-0.128-0.464-0.154c-4.276-1.159-6.414-3.091-6.414-5.796c0-1.907,0.74-3.433,2.222-4.579
	c1.481-1.146,3.407-1.719,5.777-1.719c2.369,0,4.61,0.695,6.723,2.086l-1.623,3.207c-1.674-1.107-3.49-1.662-5.447-1.662
	c-1.031,0-1.869,0.188-2.512,0.56c-0.645,0.374-0.967,0.934-0.967,1.681c0,0.67,0.335,1.159,1.005,1.468
	c0.464,0.231,1.114,0.451,1.951,0.657s1.578,0.412,2.222,0.618c0.645,0.207,1.27,0.438,1.875,0.696
	c0.604,0.258,1.256,0.618,1.95,1.082C192.146,19.931,192.841,21.374,192.841,23.331z"/>
<path fill="#FFFFFF" d="M210.881,23.331c0,1.958-0.709,3.523-2.126,4.695c-1.417,1.173-3.232,1.758-5.447,1.758
	c-1.495,0-3.047-0.271-4.656-0.812c-1.61-0.541-3.033-1.3-4.27-2.279l2.086-3.362c2.396,1.803,4.714,2.705,6.955,2.705
	c0.979,0,1.752-0.225,2.318-0.676s0.851-1.024,0.851-1.72c0-1.03-1.366-1.958-4.096-2.782c-0.207-0.077-0.361-0.128-0.464-0.154
	c-4.276-1.159-6.414-3.091-6.414-5.796c0-1.907,0.739-3.433,2.221-4.579c1.481-1.146,3.407-1.719,5.777-1.719
	s4.61,0.695,6.724,2.086l-1.623,3.207c-1.675-1.107-3.491-1.662-5.448-1.662c-1.03,0-1.868,0.188-2.512,0.56
	c-0.644,0.374-0.966,0.934-0.966,1.681c0,0.67,0.334,1.159,1.004,1.468c0.464,0.231,1.114,0.451,1.952,0.657
	c0.837,0.206,1.577,0.412,2.222,0.618c0.644,0.207,1.269,0.438,1.874,0.696c0.604,0.258,1.256,0.618,1.951,1.082
	C210.185,19.931,210.881,21.374,210.881,23.331z"/>
<path fill="#FFFFFF" d="M104.205,9.338l4.405,6.762l4.559-6.762h5.14l-7.187,10.046l7.496,10.511h-5.333l-4.907-6.84l-4.792,6.84
	h-5.062l7.302-10.472L98.912,9.338H104.205z"/>
<path fill="#FFFFFF" d="M11.167,25.065c1.932,0,3.671-0.966,5.216-2.898l3.439,3.864c-2.679,2.782-5.577,4.173-8.694,4.173
	c-3.117,0-5.751-0.985-7.902-2.956C1.076,25.277,0,22.702,0,19.52s1.088-5.771,3.265-7.767c2.176-1.996,4.758-2.995,7.748-2.995
	c1.493,0,3.007,0.31,4.54,0.928c1.533,0.618,2.879,1.533,4.039,2.743l-3.014,3.941c-0.67-0.798-1.488-1.416-2.455-1.854
	c-0.965-0.438-1.925-0.657-2.878-0.657c-1.52,0-2.828,0.496-3.922,1.487c-1.095,0.992-1.642,2.371-1.642,4.135
	c0,1.765,0.547,3.136,1.642,4.115C8.417,24.576,9.699,25.065,11.167,25.065z"/>
<path fill="#FFFFFF" d="M27.936,29.895h-5.795V2.739h5.795v13.207l6.453-6.878h7.303l-7.921,8.423l8.23,12.404h-6.877l-5.294-7.96
	l-1.893,1.971V29.895z"/>
<path fill="#FFFFFF" d="M60.316,29.895h-5.448v-2.512c-1.494,1.881-3.342,2.821-5.544,2.821s-4.051-0.638-5.544-1.913
	c-1.495-1.275-2.241-2.975-2.241-5.1c0-2.125,0.772-3.716,2.318-4.772c1.545-1.056,3.658-1.584,6.337-1.584h4.328v-0.116
	c0-2.215-1.173-3.323-3.517-3.323c-1.005,0-2.067,0.2-3.188,0.599c-1.121,0.4-2.067,0.896-2.84,1.488l-2.589-3.748
	c2.73-1.983,5.847-2.976,9.351-2.976c2.524,0,4.584,0.632,6.183,1.894c1.596,1.262,2.395,3.259,2.395,5.989V29.895z M54.481,21.973
	v-1.004H50.85c-2.319,0-3.478,0.722-3.478,2.164c0,0.748,0.276,1.32,0.831,1.719c0.554,0.4,1.346,0.599,2.376,0.599
	s1.938-0.315,2.724-0.947C54.088,23.874,54.481,23.03,54.481,21.973z"/>
<path fill="#FFFFFF" d="M86.541,25.606V18.38h12.945v-4.057H86.541V7.174h14.413V2.885H81.981v7.528
	c1.582,1.757,2.392,4.054,2.392,6.846v12.636h17.043v-4.289H86.541z"/>
<path fill="#FFFFFF" d="M81.981,12.549c-0.304-0.532-0.662-1.026-1.089-1.472c-1.481-1.546-3.317-2.319-5.506-2.319
	c-2.19,0-4.161,0.889-5.912,2.667V9.106h-5.796v20.789h5.796V18.303c0-1.623,0.431-2.853,1.294-3.69
	c0.862-0.837,1.874-1.256,3.033-1.256c2.344,0,3.517,1.598,3.517,4.792v11.747h4.664h1.132V17.259
	C83.113,15.427,82.731,13.86,81.981,12.549z"/>
<g>
	<polygon fill="#FFFFFF" points="242.001,19.042 222.959,0 222.959,6.288 235.714,19.042 222.959,31.796 222.959,38.083 	"/>
	<polygon fill="#FFFFFF" points="222.959,12.215 222.611,11.867 216.683,5.939 216.683,32.145 222.611,26.217 222.959,25.869 
		229.787,19.042 	"/>
</g>
<g>
	<path fill="#FFFFFF" d="M4.239,46.317C3.566,45.635,3.23,44.74,3.23,43.628c0-1.11,0.345-1.998,1.035-2.661
		s1.512-0.994,2.466-0.994c0.955,0,1.723,0.402,2.305,1.209v-3.924h1.505v9.972H9.037v-1.074c-0.556,0.788-1.367,1.182-2.433,1.182
		C5.699,47.337,4.91,46.998,4.239,46.317z M4.736,43.689c0,0.686,0.219,1.243,0.659,1.673c0.438,0.431,0.954,0.646,1.545,0.646
		c0.591,0,1.093-0.217,1.505-0.651c0.413-0.435,0.618-0.992,0.618-1.674c0-0.681-0.206-1.25-0.618-1.707
		c-0.412-0.457-0.918-0.685-1.519-0.685s-1.115,0.228-1.545,0.685S4.736,43.003,4.736,43.689z"/>
	<path fill="#FFFFFF" d="M19.062,47.23h-1.371v-0.954c-0.592,0.708-1.385,1.062-2.379,1.062c-0.744,0-1.36-0.21-1.849-0.631
		c-0.488-0.422-0.732-0.983-0.732-1.687c0-0.704,0.26-1.23,0.78-1.58s1.223-0.524,2.11-0.524h1.949v-0.269
		c0-0.949-0.529-1.424-1.586-1.424c-0.663,0-1.353,0.241-2.069,0.726l-0.672-0.941c0.869-0.689,1.854-1.034,2.957-1.034
		c0.842,0,1.53,0.213,2.063,0.638c0.533,0.426,0.799,1.096,0.799,2.01V47.23z M17.557,44.569v-0.604h-1.693
		c-1.084,0-1.626,0.341-1.626,1.021c0,0.35,0.134,0.616,0.403,0.8c0.269,0.184,0.643,0.275,1.122,0.275
		c0.479,0,0.898-0.134,1.256-0.403C17.378,45.389,17.557,45.026,17.557,44.569z"/>
	<path fill="#FFFFFF" d="M23.484,41.291v3.628c0,0.341,0.089,0.611,0.269,0.813c0.179,0.201,0.43,0.303,0.752,0.303
		s0.632-0.157,0.927-0.471l0.618,1.062c-0.528,0.476-1.113,0.712-1.754,0.712s-1.187-0.222-1.64-0.665
		c-0.452-0.443-0.679-1.041-0.679-1.794v-3.588h-0.9v-1.21h0.9v-2.245h1.505v2.245h1.882v1.21H23.484z"/>
	<path fill="#FFFFFF" d="M33.591,47.23H32.22v-0.954c-0.591,0.708-1.384,1.062-2.379,1.062c-0.744,0-1.36-0.21-1.848-0.631
		c-0.489-0.422-0.732-0.983-0.732-1.687c0-0.704,0.26-1.23,0.78-1.58c0.52-0.35,1.223-0.524,2.11-0.524h1.949v-0.269
		c0-0.949-0.529-1.424-1.586-1.424c-0.663,0-1.353,0.241-2.07,0.726l-0.672-0.941c0.869-0.689,1.855-1.034,2.957-1.034
		c0.842,0,1.53,0.213,2.063,0.638c0.533,0.426,0.799,1.096,0.799,2.01V47.23z M32.085,44.569v-0.604h-1.693
		c-1.084,0-1.626,0.341-1.626,1.021c0,0.35,0.134,0.616,0.403,0.8c0.269,0.184,0.643,0.275,1.122,0.275
		c0.479,0,0.898-0.134,1.256-0.403C31.906,45.389,32.085,45.026,32.085,44.569z"/>
	<path fill="#FFFFFF" d="M44.303,39.973c0.958,0,1.778,0.331,2.459,0.994s1.021,1.546,1.021,2.647c0,1.103-0.338,1.998-1.015,2.688
		c-0.677,0.689-1.465,1.034-2.366,1.034s-1.709-0.394-2.426-1.182v3.682h-1.505v-9.757h1.505v1.25
		C42.569,40.425,43.344,39.973,44.303,39.973z M41.951,43.668c0,0.682,0.206,1.239,0.618,1.674s0.914,0.651,1.505,0.651
		s1.106-0.215,1.545-0.646c0.439-0.43,0.659-0.987,0.659-1.673s-0.215-1.254-0.645-1.707c-0.43-0.452-0.946-0.678-1.546-0.678
		s-1.106,0.226-1.519,0.678C42.157,42.421,41.951,42.988,41.951,43.668z"/>
	<path fill="#FFFFFF" d="M55.054,43.952v-3.871h1.505v7.149h-1.505v-1.303c-0.242,0.438-0.576,0.783-1.001,1.034
		c-0.426,0.251-0.885,0.376-1.378,0.376c-0.806,0-1.458-0.246-1.956-0.738c-0.497-0.493-0.746-1.205-0.746-2.138v-4.381h1.505v3.925
		c0,1.316,0.546,1.976,1.639,1.976c0.52,0,0.972-0.173,1.358-0.518C54.862,45.118,55.054,44.615,55.054,43.952z"/>
	<path fill="#FFFFFF" d="M63.119,39.973c0.958,0,1.778,0.331,2.459,0.994s1.021,1.546,1.021,2.647c0,1.103-0.338,1.998-1.015,2.688
		c-0.677,0.689-1.465,1.034-2.366,1.034s-1.709-0.394-2.426-1.182v1.074h-1.505v-9.972h1.505v4.072
		C61.385,40.425,62.16,39.973,63.119,39.973z M60.767,43.668c0,0.682,0.206,1.239,0.618,1.674s0.914,0.651,1.505,0.651
		c0.591,0,1.106-0.215,1.545-0.646c0.439-0.43,0.659-0.987,0.659-1.673s-0.215-1.254-0.645-1.707
		c-0.43-0.452-0.946-0.678-1.545-0.678c-0.601,0-1.107,0.226-1.519,0.678C60.973,42.421,60.767,42.988,60.767,43.668z"/>
	<path fill="#FFFFFF" d="M70.376,47.23h-1.505v-9.972h1.505V47.23z"/>
	<path fill="#FFFFFF" d="M73.199,38.656c-0.188-0.188-0.283-0.412-0.283-0.672s0.094-0.484,0.283-0.672
		c0.188-0.188,0.412-0.282,0.671-0.282s0.484,0.094,0.672,0.282c0.188,0.188,0.283,0.412,0.283,0.672s-0.094,0.483-0.283,0.672
		c-0.188,0.188-0.412,0.282-0.672,0.282S73.386,38.844,73.199,38.656z M74.609,47.23h-1.505v-7.149h1.505V47.23z"/>
	<path fill="#FFFFFF" d="M82.431,45.093c0,0.681-0.247,1.226-0.739,1.633c-0.493,0.408-1.125,0.611-1.895,0.611
		c-0.52,0-1.06-0.094-1.62-0.282c-0.56-0.188-1.055-0.452-1.485-0.792l0.726-1.17c0.833,0.627,1.64,0.941,2.419,0.941
		c0.34,0,0.609-0.079,0.806-0.235c0.197-0.157,0.296-0.356,0.296-0.599c0-0.357-0.475-0.681-1.424-0.968
		c-0.072-0.026-0.126-0.044-0.162-0.054c-1.487-0.402-2.231-1.075-2.231-2.016c0-0.663,0.257-1.193,0.772-1.593
		c0.515-0.398,1.185-0.598,2.01-0.598c0.824,0,1.604,0.241,2.338,0.726l-0.565,1.115c-0.582-0.386-1.214-0.578-1.895-0.578
		c-0.358,0-0.65,0.065-0.874,0.195c-0.224,0.13-0.335,0.325-0.335,0.585c0,0.232,0.116,0.402,0.349,0.51
		c0.161,0.081,0.387,0.157,0.679,0.229c0.291,0.072,0.549,0.144,0.773,0.216c0.224,0.071,0.441,0.152,0.652,0.241
		c0.21,0.09,0.437,0.216,0.679,0.377C82.189,43.911,82.431,44.413,82.431,45.093z"/>
	<path fill="#FFFFFF" d="M86.194,43.36v3.87h-1.505v-9.959h1.505v4.113c0.215-0.439,0.54-0.784,0.975-1.035
		c0.434-0.251,0.902-0.376,1.404-0.376c0.806,0,1.458,0.246,1.956,0.739c0.497,0.492,0.746,1.205,0.746,2.137v4.381H89.77v-3.924
		c0-1.317-0.546-1.976-1.64-1.976c-0.52,0-0.973,0.173-1.358,0.517C86.387,42.193,86.194,42.697,86.194,43.36z"/>
	<path fill="#FFFFFF" d="M94.017,38.656c-0.188-0.188-0.282-0.412-0.282-0.672s0.094-0.484,0.282-0.672
		c0.188-0.188,0.412-0.282,0.672-0.282s0.484,0.094,0.672,0.282c0.188,0.188,0.283,0.412,0.283,0.672s-0.094,0.483-0.283,0.672
		c-0.188,0.188-0.412,0.282-0.672,0.282S94.205,38.844,94.017,38.656z M95.428,47.23h-1.505v-7.149h1.505V47.23z"/>
	<path fill="#FFFFFF" d="M99.661,43.36v3.87h-1.505v-7.149h1.505v1.304c0.242-0.439,0.576-0.784,1.001-1.035
		c0.426-0.251,0.885-0.376,1.378-0.376c0.806,0,1.458,0.246,1.956,0.739c0.497,0.492,0.746,1.205,0.746,2.137v4.381h-1.505v-3.924
		c0-1.317-0.547-1.976-1.64-1.976c-0.52,0-0.973,0.173-1.358,0.517C99.854,42.193,99.661,42.697,99.661,43.36z"/>
	<path fill="#FFFFFF" d="M114.001,40.081v6.236c0,1.263-0.343,2.21-1.028,2.842c-0.685,0.632-1.565,0.947-2.641,0.947
		s-2.048-0.336-2.917-1.008l0.712-1.143c0.699,0.529,1.405,0.794,2.117,0.794c0.712,0,1.277-0.185,1.693-0.552
		c0.417-0.367,0.625-0.954,0.625-1.76v-0.915c-0.224,0.422-0.544,0.758-0.961,1.009c-0.417,0.251-0.885,0.376-1.404,0.376
		c-0.95,0-1.729-0.331-2.339-0.994s-0.914-1.487-0.914-2.474c0-0.985,0.304-1.81,0.914-2.473s1.387-0.994,2.332-0.994
		s1.713,0.39,2.305,1.169v-1.062H114.001z M108.424,43.379c0,0.587,0.182,1.094,0.544,1.52s0.852,0.638,1.465,0.638
		c0.614,0,1.111-0.206,1.492-0.618s0.571-0.925,0.571-1.539c0-0.613-0.193-1.133-0.578-1.559s-0.883-0.639-1.492-0.639
		c-0.609,0-1.096,0.22-1.458,0.659C108.605,42.28,108.424,42.792,108.424,43.379z"/>
	<path fill="#FFFFFF" d="M122.468,43.36v3.87h-1.505v-7.149h1.505v1.304c0.216-0.439,0.54-0.784,0.975-1.035
		s0.902-0.376,1.404-0.376c1.129,0,1.896,0.466,2.298,1.397c0.708-0.932,1.591-1.397,2.648-1.397c0.807,0,1.458,0.246,1.955,0.739
		c0.497,0.492,0.746,1.205,0.746,2.137v4.381h-1.505v-3.924c0-1.317-0.547-1.976-1.641-1.976c-0.51,0-0.956,0.163-1.337,0.49
		s-0.58,0.805-0.598,1.432v3.978h-1.506v-3.924c0-0.681-0.12-1.181-0.362-1.499c-0.242-0.317-0.622-0.477-1.143-0.477
		c-0.52,0-0.972,0.173-1.357,0.517C122.662,42.193,122.468,42.697,122.468,43.36z"/>
	<path fill="#FFFFFF" d="M140.935,47.23h-1.371v-0.954c-0.592,0.708-1.384,1.062-2.379,1.062c-0.744,0-1.359-0.21-1.848-0.631
		c-0.488-0.422-0.733-0.983-0.733-1.687c0-0.704,0.261-1.23,0.78-1.58s1.224-0.524,2.11-0.524h1.949v-0.269
		c0-0.949-0.529-1.424-1.587-1.424c-0.663,0-1.353,0.241-2.069,0.726l-0.672-0.941c0.868-0.689,1.854-1.034,2.957-1.034
		c0.842,0,1.53,0.213,2.063,0.638c0.532,0.426,0.799,1.096,0.799,2.01V47.23z M139.429,44.569v-0.604h-1.692
		c-1.085,0-1.626,0.341-1.626,1.021c0,0.35,0.134,0.616,0.402,0.8c0.27,0.184,0.644,0.275,1.122,0.275
		c0.479,0,0.898-0.134,1.257-0.403C139.25,45.389,139.429,45.026,139.429,44.569z"/>
	<path fill="#FFFFFF" d="M144.134,46.317c-0.673-0.682-1.009-1.577-1.009-2.688c0-1.11,0.345-1.998,1.035-2.661
		c0.689-0.663,1.513-0.994,2.466-0.994c0.954,0,1.723,0.402,2.306,1.209v-3.924h1.505v9.972h-1.505v-1.074
		c-0.557,0.788-1.367,1.182-2.434,1.182C145.594,47.337,144.806,46.998,144.134,46.317z M144.631,43.689
		c0,0.686,0.219,1.243,0.658,1.673c0.439,0.431,0.954,0.646,1.546,0.646c0.591,0,1.093-0.217,1.505-0.651s0.618-0.992,0.618-1.674
		c0-0.681-0.206-1.25-0.618-1.707s-0.919-0.685-1.519-0.685c-0.601,0-1.115,0.228-1.546,0.685
		C144.846,42.432,144.631,43.003,144.631,43.689z"/>
	<path fill="#FFFFFF" d="M159.818,44.314h-5.604c0.036,0.52,0.272,0.938,0.713,1.257c0.438,0.318,0.94,0.477,1.505,0.477
		c0.896,0,1.577-0.282,2.043-0.847l0.86,0.941c-0.771,0.797-1.774,1.195-3.011,1.195c-1.004,0-1.857-0.333-2.561-1.001
		c-0.703-0.667-1.056-1.563-1.056-2.688c0-1.125,0.358-2.019,1.076-2.682c0.717-0.663,1.561-0.994,2.533-0.994
		c0.972,0,1.799,0.293,2.479,0.88s1.021,1.396,1.021,2.426V44.314z M154.213,43.131h4.099c0-0.601-0.188-1.062-0.564-1.385
		c-0.375-0.322-0.84-0.483-1.39-0.483c-0.552,0-1.047,0.168-1.486,0.504C154.433,42.103,154.213,42.558,154.213,43.131z"/>
	<path fill="#FFFFFF" d="M172.908,44.314h-5.604c0.035,0.52,0.272,0.938,0.712,1.257s0.941,0.477,1.506,0.477
		c0.896,0,1.576-0.282,2.042-0.847l0.861,0.941c-0.771,0.797-1.774,1.195-3.011,1.195c-1.004,0-1.857-0.333-2.562-1.001
		c-0.703-0.667-1.055-1.563-1.055-2.688c0-1.125,0.358-2.019,1.075-2.682c0.718-0.663,1.562-0.994,2.533-0.994
		c0.973,0,1.799,0.293,2.48,0.88c0.681,0.587,1.021,1.396,1.021,2.426V44.314z M167.304,43.131h4.099
		c0-0.601-0.188-1.062-0.564-1.385c-0.376-0.322-0.84-0.483-1.391-0.483s-1.047,0.168-1.485,0.504S167.304,42.558,167.304,43.131z"
		/>
	<path fill="#FFFFFF" d="M180.906,47.23h-1.371v-0.954c-0.592,0.708-1.385,1.062-2.379,1.062c-0.744,0-1.36-0.21-1.849-0.631
		c-0.488-0.422-0.732-0.983-0.732-1.687c0-0.704,0.261-1.23,0.779-1.58c0.521-0.35,1.224-0.524,2.111-0.524h1.948v-0.269
		c0-0.949-0.528-1.424-1.586-1.424c-0.664,0-1.353,0.241-2.069,0.726l-0.672-0.941c0.868-0.689,1.854-1.034,2.956-1.034
		c0.843,0,1.53,0.213,2.063,0.638c0.533,0.426,0.8,1.096,0.8,2.01V47.23z M179.4,44.569v-0.604h-1.693
		c-1.084,0-1.626,0.341-1.626,1.021c0,0.35,0.134,0.616,0.403,0.8c0.269,0.184,0.643,0.275,1.122,0.275s0.897-0.134,1.256-0.403
		C179.22,45.389,179.4,45.026,179.4,44.569z"/>
	<path fill="#FFFFFF" d="M188.647,45.093c0,0.681-0.247,1.226-0.739,1.633c-0.493,0.408-1.125,0.611-1.896,0.611
		c-0.52,0-1.06-0.094-1.62-0.282c-0.559-0.188-1.055-0.452-1.484-0.792l0.726-1.17c0.833,0.627,1.641,0.941,2.42,0.941
		c0.34,0,0.608-0.079,0.806-0.235c0.197-0.157,0.296-0.356,0.296-0.599c0-0.357-0.476-0.681-1.425-0.968
		c-0.072-0.026-0.126-0.044-0.161-0.054c-1.487-0.402-2.231-1.075-2.231-2.016c0-0.663,0.258-1.193,0.772-1.593
		c0.516-0.398,1.186-0.598,2.01-0.598s1.604,0.241,2.339,0.726l-0.564,1.115c-0.583-0.386-1.215-0.578-1.896-0.578
		c-0.358,0-0.649,0.065-0.874,0.195c-0.224,0.13-0.335,0.325-0.335,0.585c0,0.232,0.116,0.402,0.35,0.51
		c0.16,0.081,0.387,0.157,0.678,0.229c0.292,0.072,0.549,0.144,0.773,0.216c0.224,0.071,0.441,0.152,0.652,0.241
		c0.21,0.09,0.436,0.216,0.678,0.377C188.405,43.911,188.647,44.413,188.647,45.093z"/>
	<path fill="#FFFFFF" d="M191.805,50.08c-0.654,0-1.245-0.237-1.774-0.712l0.686-1.224c0.313,0.296,0.638,0.444,0.975,0.444
		c0.335,0,0.608-0.121,0.819-0.363s0.315-0.507,0.315-0.793c0-0.126-0.963-2.576-2.889-7.352h1.612l2.138,5.268l2.137-5.268h1.612
		l-3.467,8.494c-0.206,0.465-0.503,0.833-0.888,1.102S192.271,50.08,191.805,50.08z"/>
</g>
</svg>
